<svg viewBox="0 0 256 256" xmlns="http://www.w3.org/2000/svg"><path fill="none" d="M0 0h256v256H0z"></path><path d="M32 72h23.1a64 64 0 0 1 52 26.8l41.8 58.4a64 64 0 0 0 52 26.8H232M208 48l24 24-24 24" fill="none" stroke="#c1c1c1" stroke-linecap="round" stroke-linejoin="round" stroke-width="16" class="stroke-000000"></path><path fill="none" stroke="#c1c1c1" stroke-linecap="round" stroke-linejoin="round" stroke-width="16" d="m208 160 24 24-24 24M147.7 100.5l1.2-1.7a64 64 0 0 1 52-26.8H232M32 184h23.1a64 64 0 0 0 52-26.8l1.2-1.7" class="stroke-000000"></path></svg>